<svg xmlns="http://www.w3.org/2000/svg" viewBox="0 0 512 512">
  <rect width="512" height="512" rx="112" fill="#4f46e5"/>
  <polygon points="256,80 367,122 404,233 367,344 256,386 145,344 108,233 145,122" fill="none" stroke="white" stroke-width="26" stroke-linejoin="round"/>
  <polygon points="256,168 311,189 332,244 311,299 256,320 201,299 180,244 201,189" fill="white"/>
  <line x1="256" y1="80"  x2="256" y2="168" stroke="white" stroke-width="14" stroke-linecap="round"/>
  <line x1="367" y1="122" x2="311" y2="189" stroke="white" stroke-width="14" stroke-linecap="round"/>
  <line x1="404" y1="233" x2="332" y2="244" stroke="white" stroke-width="14" stroke-linecap="round"/>
  <line x1="367" y1="344" x2="311" y2="299" stroke="white" stroke-width="14" stroke-linecap="round"/>
  <line x1="256" y1="386" x2="256" y2="320" stroke="white" stroke-width="14" stroke-linecap="round"/>
  <line x1="145" y1="344" x2="201" y2="299" stroke="white" stroke-width="14" stroke-linecap="round"/>
  <line x1="108" y1="233" x2="180" y2="244" stroke="white" stroke-width="14" stroke-linecap="round"/>
  <line x1="145" y1="122" x2="201" y2="189" stroke="white" stroke-width="14" stroke-linecap="round"/>
</svg>
